# xmcd
#
# Track frame offsets: 
#        150
#        24958
#        44720
#        67776
#        91946
#        109950
#        149952
#        172176
#        206193
#        229625
#        245961
#        262974
#
# Disc length: 3968 seconds
#
# Revision: 0
# Processed by: cddbd v1.5.2PL0 Copyright (c) Steve Scherf et al.
# Submitted via: ExactAudioCopy v0.99pb3
#
DISCID=b60f7e0c
DTITLE=Bluemoon Express - Live Bootleg
DYEAR=2001
DGENRE=Blues
TTITLE0=Crosscut Saw
TTITLE1=Phone Booth
TTITLE2=Blues Call
TTITLE3=Messin' With The Kid
TTITLE4=I'm Tore Down
TTITLE5=Have You Ever Loved A Woman
TTITLE6=Three Hundred Pounds (Hoy-Hoy)
TTITLE7=Little Wing
TTITLE8=Too Many Drivers
TTITLE9=Big Boss Man
TTITLE10=Pony Ride
TTITLE11=Can't You See
EXTD=
EXTT0=
EXTT1=
EXTT2=
EXTT3=
EXTT4=
EXTT5=
EXTT6=
EXTT7=
EXTT8=
EXTT9=
EXTT10=
EXTT11=
PLAYORDER=
